<svg xmlns="http://www.w3.org/2000/svg" xmlns:xlink="http://www.w3.org/1999/xlink" version="1.1" x="0px" y="0px" viewBox="-55 147 500 500" style="enable-background:new -55 147 500 500;" xml:space="preserve"><path d="M195,147C57.1,147-55,259.2-55,397c0,12.7,10.3,23,23,23s23-10.3,23-23c0-112.5,91.5-203.9,203.9-203.9s204,91.4,204,203.9  S307.5,600.9,195,600.9c-29.6,0-58.9-6.5-85.5-18.8c3-12.1,9.3-25.4,18.2-38c26.4-37.2,66.8-58.7,103.1-54.6  c56.8,6.4,70.9,2.3,76.1,0.8c20.7-6,46.2-31.4,54.4-40.6c11-12.6,18.6-28.3,21.3-44c2.4-14.1-3.9-28.1-16.1-35.5  c-23.2-14.3-47.7-26.2-72.7-35.4l-1.4-0.5c-5.4-2-10.1-3.7-12.5-6c-3.2-3-6.5-9.1-9.8-15c-1.7-3.1-3.5-6.4-5.5-9.6  c-21.6-35.5-55.2-54.3-97.2-54.3h-0.1c-30.3,0-57.4,10.1-68.7,16.1C69.8,280.7,49.1,304,40.2,331c-5.3,16.1-7.2,33.9-5.6,54.4  c1.3,18.2,5.2,36.1,11.3,53.3c1.5,4.3,6.3,17.4,20,22.8c12,4.7,22.8,0.5,27.4-1.4c39.6-15.7,81.2-57.1,79-126.4  c-0.4-12.7-11-22.7-23.7-22.3c-12.7,0.4-22.7,11-22.3,23.7c1.5,46.3-24.1,68.3-40.4,77.5c-2.8-10-4.7-20.3-5.4-30.8  c-1.1-14.3,0.1-26.3,3.5-36.6c5.2-15.7,18-29.6,36.2-39.3c5.2-2.8,25.2-10.7,47.2-10.7h0.1c25.8,0,44.7,10.5,57.8,32.2  c1.4,2.4,2.9,5,4.4,7.8c4.8,8.7,10.2,18.6,18.8,26.6c9.3,8.6,19.7,12.5,28,15.5l1.3,0.5c19.7,7.3,38.9,16.4,57.4,27.2  c-1.9,5.1-4.9,10.1-8.6,14.3c-10.3,11.8-27,25-32.4,26.7c-0.4,0.1-11.3,3-58.3-2.3c-53.4-6-109.3,22.3-145.8,73.8  c-10.4,14.6-27.9,44.1-28.7,77.3c0,0,0,0,0,0.1c0,0.6,0,1.2,0.1,1.8c0,0.2,0,0.3,0,0.5c0,0.4,0.1,0.9,0.2,1.3c0.3,2.4,1,4.6,2,6.7  c0.1,0.2,0.2,0.4,0.2,0.5c0.2,0.3,0.4,0.7,0.6,1c0.2,0.3,0.4,0.7,0.6,1c0.1,0.2,0.2,0.3,0.3,0.5c1.3,1.9,2.9,3.6,4.7,5.1  c0.3,0.3,0.7,0.6,1.1,0.8c0.1,0.1,0.3,0.2,0.4,0.3c0.5,0.3,1,0.7,1.6,1c0,0,0,0,0.1,0c37,20.7,79.1,31.6,121.7,31.6  c137.9,0,250-112.1,250-250C445,259.2,332.9,147,195,147z"/><text x="-55" y="662" fill="#000000" font-size="5px" font-weight="bold" font-family="'Helvetica Neue', Helvetica, Arial-Unicode, Arial, Sans-serif">Created by IronSV</text><text x="-55" y="667" fill="#000000" font-size="5px" font-weight="bold" font-family="'Helvetica Neue', Helvetica, Arial-Unicode, Arial, Sans-serif">from the Noun Project</text></svg>